<svg width="76" height="76" viewBox="0 0 76 76" fill="none" xmlns="http://www.w3.org/2000/svg">
<circle cx="38" cy="38" r="38" fill="#888CBD"/>
<g opacity="0.6">
<mask id="mask0_235_52" style="mask-type:luminance" maskUnits="userSpaceOnUse" x="21" y="30" width="34" height="19">
<path d="M21.0068 30.793H54.9949V48.5654H21.0068V30.793Z" fill="white"/>
</mask>
<g mask="url(#mask0_235_52)">
<path d="M38.0042 30.793L21.0068 38.5233L38.0042 48.5654L54.9949 38.5233L38.0042 30.793Z" fill="#010101"/>
</g>
</g>
<g opacity="0.45">
<mask id="mask1_235_52" style="mask-type:luminance" maskUnits="userSpaceOnUse" x="21" y="10" width="18" height="39">
<path d="M21.0068 10.3208H38.0042V48.5648H21.0068V10.3208Z" fill="white"/>
</mask>
<g mask="url(#mask1_235_52)">
<path d="M21.0068 38.5228L38.0042 48.5648V10.3208L21.0068 38.5228Z" fill="#010101"/>
</g>
</g>
<g opacity="0.8">
<mask id="mask2_235_52" style="mask-type:luminance" maskUnits="userSpaceOnUse" x="38" y="10" width="18" height="39">
<path d="M38.0042 10.3208H55.0015V48.5648H38.0042V10.3208Z" fill="white"/>
</mask>
<g mask="url(#mask2_235_52)">
<path d="M38.0042 10.3208V48.5648L54.9948 38.5228L38.0042 10.3208Z" fill="#010101"/>
</g>
</g>
<g opacity="0.45">
<mask id="mask3_235_52" style="mask-type:luminance" maskUnits="userSpaceOnUse" x="21" y="41" width="18" height="25">
<path d="M21.0068 41.7432H38.0042V65.6891H21.0068V41.7432Z" fill="white"/>
</mask>
<g mask="url(#mask3_235_52)">
<path d="M21.0068 41.7432L38.0042 65.6891V51.7852L21.0068 41.7432Z" fill="#010101"/>
</g>
</g>
<g opacity="0.8">
<mask id="mask4_235_52" style="mask-type:luminance" maskUnits="userSpaceOnUse" x="38" y="41" width="18" height="25">
<path d="M38.0042 41.7432H55.0082V65.6891H38.0042V41.7432Z" fill="white"/>
</mask>
<g mask="url(#mask4_235_52)">
<path d="M38.0042 51.7852V65.6891L55.0082 41.7432L38.0042 51.7852Z" fill="#010101"/>
</g>
</g>
</svg>
