<svg width="87" height="87" viewBox="0 0 87 87" fill="none" xmlns="http://www.w3.org/2000/svg">
<g clip-path="url(#clip0_235_15)">
<path d="M43.5 1.5C66.6949 1.5 85.5 20.3051 85.5 43.5C85.5 66.6949 66.694 85.5 43.5 85.5C20.3059 85.5 1.5 66.7 1.5 43.5C1.5 20.3 20.3024 1.5 43.5 1.5Z" fill="#A4F0B2" stroke="black" stroke-width="3"/>
<path d="M48.8688 37.7038V31.2328H63.6666V21.373H23.3717V31.2328H38.1713V37.6986C26.1435 38.251 17.0999 40.6331 17.0999 43.4867C17.0999 46.3403 26.1479 48.7224 38.1713 49.2783V70.006H48.8723V49.2766C60.8783 48.7224 69.9036 46.342 69.9036 43.4911C69.9036 40.6401 60.8783 38.2597 48.8723 37.7056M48.8723 47.5209V47.5157C48.5704 47.5348 47.0192 47.6279 43.5653 47.6279C40.8039 47.6279 38.8612 47.5496 38.1765 47.5139V47.5226C27.5503 47.052 19.6185 45.2015 19.6185 42.9873C19.6185 40.7732 27.5512 38.9253 38.1765 38.4538V45.6791C38.8725 45.727 40.863 45.8444 43.6105 45.8444C46.9104 45.8444 48.5695 45.7069 48.874 45.6791V38.4538C59.4793 38.9262 67.3928 40.7784 67.3928 42.9847C67.3928 45.191 59.4758 47.0441 48.874 47.5165" fill="black"/>
</g>
<defs>
<clipPath id="clip0_235_15">
<rect width="87" height="87" fill="white"/>
</clipPath>
</defs>
</svg>
