<svg width="484" height="484" viewBox="0 0 484 484" fill="none" xmlns="http://www.w3.org/2000/svg">
<g clip-path="url(#clip0_6798_7626)">
<path d="M241.903 483.805C375.502 483.805 483.805 375.502 483.805 241.903C483.805 108.303 375.502 0 241.903 0C108.303 0 0 108.303 0 241.903C0 375.502 108.303 483.805 241.903 483.805Z" fill="url(#paint0_linear_6798_7626)"/>
<g filter="url(#filter0_d_6798_7626)">
<path d="M173.066 202.064C171.098 202.064 169.122 201.601 167.359 200.72L88.6271 161.45C85.3598 159.823 82.941 156.863 81.9899 153.341C81.0388 149.816 81.6415 146.044 83.6461 142.994C97.7322 121.545 115.614 103.486 136.801 89.3225C157.918 75.2036 181.294 65.6353 206.276 60.8798C207.059 60.7322 207.855 60.6543 208.646 60.6543C215.09 60.6543 220.518 65.5205 221.272 71.9773C222.047 78.6022 217.546 84.7638 211.028 86.006C173.619 93.1351 139.667 113.334 115.422 142.879L113.466 145.265L171.815 174.368L220.301 139.009C226.639 134.389 234.108 131.946 241.901 131.946C249.695 131.946 257.16 134.389 263.502 139.009L311.979 174.372L370.336 145.269L368.381 142.883C344.136 113.338 310.184 93.1392 272.775 86.0101C266.257 84.7679 261.76 78.6104 262.53 71.9855C263.285 65.5287 268.712 60.6584 275.157 60.6584C275.948 60.6584 276.743 60.7322 277.526 60.8839C302.509 65.6394 325.885 75.2077 347.002 89.3266C368.184 103.491 386.07 121.549 400.156 142.998C402.161 146.048 402.764 149.824 401.813 153.345C400.862 156.871 398.443 159.827 395.176 161.454L316.435 200.724C314.673 201.601 312.701 202.068 310.729 202.068C308.003 202.068 305.395 201.22 303.194 199.613L248.44 159.671C246.522 158.273 244.263 157.535 241.905 157.535C239.548 157.535 237.289 158.273 235.371 159.671L180.601 199.613C178.399 201.22 175.792 202.068 173.066 202.068V202.064Z" fill="url(#paint1_radial_6798_7626)"/>
<path d="M262.591 423.156C255.54 423.156 249.805 417.42 249.805 410.369V312.874H294.469C307.149 312.874 317.468 302.559 317.468 289.875V225.787C317.468 220.908 320.182 216.526 324.544 214.345L402.251 175.575C404.046 174.682 405.961 174.227 407.949 174.227C413.332 174.227 418.169 177.625 419.99 182.688C427.373 203.194 431.116 224.745 431.116 246.735C431.116 285.993 419.198 323.651 396.655 355.632C377.379 382.98 351.228 404.773 321.039 418.654C319.37 419.421 317.595 419.811 315.775 419.811C310.478 419.811 305.665 416.469 303.8 411.497C301.455 405.253 304.349 398.185 310.392 395.402C336.482 383.394 359.082 364.548 375.755 340.898C395.245 313.251 405.547 280.688 405.547 246.735C405.547 233.687 404.01 220.707 400.976 208.159L400.25 205.158L343.041 233.699V289.887C343.041 316.666 321.256 338.447 294.482 338.447H275.382V410.373C275.382 417.425 269.647 423.16 262.595 423.16L262.591 423.156Z" fill="url(#paint2_radial_6798_7626)"/>
<path d="M221.221 423.154C217.807 423.154 214.597 421.825 212.182 419.411C209.767 416.996 208.439 413.786 208.439 410.371V338.445H189.347C162.565 338.445 140.78 316.656 140.78 289.877V233.697L83.5706 205.156L82.845 208.157C79.8113 220.705 78.274 233.685 78.274 246.733C78.274 280.69 88.5762 313.249 108.065 340.896C124.738 364.546 147.339 383.392 173.429 395.4C179.455 398.175 182.358 405.23 180.033 411.462L180.017 411.511C178.156 416.467 173.343 419.809 168.046 419.809C166.222 419.809 164.451 419.419 162.782 418.652C132.593 404.771 106.446 382.978 87.1659 355.63C64.6225 323.645 52.7051 285.991 52.7051 246.733C52.7051 224.743 56.448 203.196 63.8313 182.686C65.6515 177.627 70.4931 174.225 75.8717 174.225C77.8559 174.225 79.7744 174.68 81.5701 175.573L159.277 214.343C163.643 216.52 166.353 220.906 166.353 225.785V289.881C166.353 302.557 176.667 312.872 189.343 312.872H234.016V410.367C234.016 413.782 232.688 416.992 230.273 419.407C227.859 421.821 224.649 423.15 221.234 423.15L221.221 423.154Z" fill="url(#paint3_radial_6798_7626)"/>
<path d="M210.461 228.268H215.896V245.753C215.896 247.789 215.46 249.503 214.587 250.897C213.727 252.29 212.533 253.339 211.006 254.041C209.492 254.744 207.747 255.096 205.772 255.096C203.797 255.096 202.04 254.744 200.501 254.041C198.974 253.339 197.774 252.29 196.902 250.897C196.041 249.503 195.611 247.789 195.611 245.753V228.268H201.064V245.753C201.064 246.941 201.252 247.91 201.628 248.661C202.003 249.413 202.542 249.964 203.245 250.315C203.96 250.667 204.802 250.842 205.772 250.842C206.765 250.842 207.608 250.667 208.298 250.315C209.001 249.964 209.534 249.413 209.898 248.661C210.273 247.91 210.461 246.941 210.461 245.753V228.268Z" fill="url(#paint4_radial_6798_7626)"/>
<path d="M234.163 247.807C234.163 247.334 234.09 246.91 233.945 246.535C233.811 246.147 233.557 245.796 233.181 245.481C232.806 245.153 232.278 244.832 231.6 244.517C230.921 244.202 230.043 243.875 228.964 243.536C227.765 243.148 226.626 242.712 225.547 242.227C224.481 241.742 223.536 241.179 222.712 240.537C221.9 239.882 221.258 239.125 220.785 238.265C220.325 237.404 220.094 236.405 220.094 235.266C220.094 234.163 220.337 233.163 220.821 232.267C221.306 231.358 221.985 230.582 222.857 229.94C223.73 229.286 224.76 228.783 225.947 228.431C227.147 228.08 228.461 227.904 229.891 227.904C231.842 227.904 233.545 228.256 234.999 228.959C236.453 229.661 237.58 230.625 238.38 231.848C239.191 233.072 239.597 234.472 239.597 236.047H234.181C234.181 235.272 234.017 234.593 233.69 234.011C233.375 233.418 232.89 232.951 232.236 232.612C231.594 232.273 230.782 232.103 229.8 232.103C228.855 232.103 228.068 232.248 227.438 232.539C226.807 232.818 226.335 233.2 226.02 233.684C225.705 234.157 225.547 234.69 225.547 235.284C225.547 235.732 225.656 236.138 225.874 236.502C226.105 236.865 226.444 237.204 226.892 237.519C227.341 237.834 227.892 238.131 228.546 238.41C229.201 238.689 229.958 238.961 230.818 239.228C232.26 239.664 233.527 240.155 234.617 240.7C235.72 241.245 236.641 241.857 237.38 242.536C238.119 243.215 238.676 243.984 239.052 244.844C239.428 245.705 239.615 246.68 239.615 247.771C239.615 248.922 239.391 249.952 238.943 250.861C238.495 251.769 237.846 252.539 236.998 253.169C236.15 253.799 235.138 254.278 233.963 254.605C232.787 254.932 231.473 255.096 230.019 255.096C228.71 255.096 227.419 254.926 226.147 254.587C224.875 254.235 223.718 253.708 222.675 253.005C221.645 252.303 220.821 251.406 220.203 250.315C219.585 249.225 219.277 247.934 219.277 246.444H224.747C224.747 247.268 224.875 247.965 225.129 248.534C225.384 249.104 225.741 249.564 226.202 249.915C226.674 250.267 227.232 250.521 227.874 250.679C228.528 250.836 229.243 250.915 230.019 250.915C230.964 250.915 231.739 250.782 232.345 250.515C232.963 250.249 233.417 249.879 233.708 249.407C234.011 248.934 234.163 248.401 234.163 247.807Z" fill="url(#paint5_radial_6798_7626)"/>
<path d="M251.448 254.732H245.686L245.723 250.479H251.448C252.878 250.479 254.084 250.158 255.065 249.516C256.047 248.861 256.786 247.91 257.283 246.662C257.791 245.414 258.046 243.905 258.046 242.136V240.846C258.046 239.488 257.901 238.295 257.61 237.265C257.331 236.235 256.913 235.369 256.356 234.666C255.798 233.963 255.114 233.436 254.302 233.084C253.49 232.721 252.557 232.539 251.503 232.539H245.577V228.268H251.503C253.272 228.268 254.889 228.571 256.356 229.177C257.834 229.77 259.112 230.625 260.191 231.739C261.269 232.854 262.099 234.187 262.681 235.738C263.275 237.277 263.571 238.992 263.571 240.882V242.136C263.571 244.014 263.275 245.729 262.681 247.28C262.099 248.831 261.269 250.164 260.191 251.279C259.124 252.381 257.846 253.236 256.356 253.841C254.877 254.435 253.241 254.732 251.448 254.732ZM248.776 228.268V254.732H243.323V228.268H248.776Z" fill="url(#paint6_radial_6798_7626)"/>
<path d="M267.534 228.268H277.403C279.427 228.268 281.166 228.571 282.62 229.177C284.086 229.782 285.213 230.679 286.001 231.867C286.788 233.054 287.182 234.514 287.182 236.247C287.182 237.665 286.94 238.883 286.455 239.9C285.982 240.906 285.31 241.748 284.438 242.427C283.577 243.093 282.565 243.627 281.402 244.026L279.675 244.935H271.096L271.06 240.682H277.44C278.397 240.682 279.191 240.512 279.821 240.173C280.451 239.834 280.924 239.361 281.239 238.755C281.566 238.15 281.729 237.447 281.729 236.647C281.729 235.799 281.572 235.066 281.257 234.448C280.942 233.83 280.463 233.357 279.821 233.03C279.179 232.703 278.373 232.539 277.403 232.539H272.987V254.732H267.534V228.268ZM282.329 254.732L276.295 242.936L282.056 242.9L288.164 254.478V254.732H282.329Z" fill="url(#paint7_radial_6798_7626)"/>
</g>
</g>
<defs>
<filter id="filter0_d_6798_7626" x="52.7051" y="60.6543" width="378.41" height="366.835" filterUnits="userSpaceOnUse" color-interpolation-filters="sRGB">
<feFlood flood-opacity="0" result="BackgroundImageFix"/>
<feColorMatrix in="SourceAlpha" type="matrix" values="0 0 0 0 0 0 0 0 0 0 0 0 0 0 0 0 0 0 127 0" result="hardAlpha"/>
<feOffset dy="4.32935"/>
<feComposite in2="hardAlpha" operator="out"/>
<feColorMatrix type="matrix" values="0 0 0 0 0.19434 0 0 0 0 0.288409 0 0 0 0 0.804167 0 0 0 0.5 0"/>
<feBlend mode="normal" in2="BackgroundImageFix" result="effect1_dropShadow_6798_7626"/>
<feBlend mode="normal" in="SourceGraphic" in2="effect1_dropShadow_6798_7626" result="shape"/>
</filter>
<linearGradient id="paint0_linear_6798_7626" x1="241.902" y1="475.704" x2="241.902" y2="-2.19325" gradientUnits="userSpaceOnUse">
<stop stop-color="#2E5CFF"/>
<stop offset="1" stop-color="#6164FC"/>
</linearGradient>
<radialGradient id="paint1_radial_6798_7626" cx="0" cy="0" r="1" gradientUnits="userSpaceOnUse" gradientTransform="translate(241.901 131.359) scale(123.921 123.921)">
<stop stop-color="white"/>
<stop offset="1" stop-color="#E5E5E5"/>
</radialGradient>
<radialGradient id="paint2_radial_6798_7626" cx="0" cy="0" r="1" gradientUnits="userSpaceOnUse" gradientTransform="translate(340.458 298.689) scale(108.88 108.88)">
<stop stop-color="white"/>
<stop offset="1" stop-color="#E5E5E5"/>
</radialGradient>
<radialGradient id="paint3_radial_6798_7626" cx="0" cy="0" r="1" gradientUnits="userSpaceOnUse" gradientTransform="translate(143.35 298.691) scale(108.88 108.88)">
<stop stop-color="white"/>
<stop offset="1" stop-color="#E5E5E5"/>
</radialGradient>
<radialGradient id="paint4_radial_6798_7626" cx="0" cy="0" r="1" gradientUnits="userSpaceOnUse" gradientTransform="translate(241.887 241.5) scale(35.7625 23.8278)">
<stop stop-color="white"/>
<stop offset="1" stop-color="#E5E5E5"/>
</radialGradient>
<radialGradient id="paint5_radial_6798_7626" cx="0" cy="0" r="1" gradientUnits="userSpaceOnUse" gradientTransform="translate(241.887 241.5) scale(35.7625 23.8278)">
<stop stop-color="white"/>
<stop offset="1" stop-color="#E5E5E5"/>
</radialGradient>
<radialGradient id="paint6_radial_6798_7626" cx="0" cy="0" r="1" gradientUnits="userSpaceOnUse" gradientTransform="translate(241.887 241.5) scale(35.7625 23.8278)">
<stop stop-color="white"/>
<stop offset="1" stop-color="#E5E5E5"/>
</radialGradient>
<radialGradient id="paint7_radial_6798_7626" cx="0" cy="0" r="1" gradientUnits="userSpaceOnUse" gradientTransform="translate(241.887 241.5) scale(35.7625 23.8278)">
<stop stop-color="white"/>
<stop offset="1" stop-color="#E5E5E5"/>
</radialGradient>
<clipPath id="clip0_6798_7626">
<rect width="483.805" height="483.805" fill="white"/>
</clipPath>
</defs>
</svg>
